<?xml version="1.0" encoding="UTF-8" standalone="no"?>
<!-- Created with Inkscape (http://www.inkscape.org/) -->

<svg
   width="210mm"
   height="297mm"
   viewBox="0 0 210 297"
   version="1.1"
   id="svg5"
   inkscape:version="1.1.2 (b8e25be833, 2022-02-05)"
   xmlns:inkscape="http://www.inkscape.org/namespaces/inkscape"
   xmlns:sodipodi="http://sodipodi.sourceforge.net/DTD/sodipodi-0.dtd"
   xmlns="http://www.w3.org/2000/svg"
   xmlns:svg="http://www.w3.org/2000/svg">
  <sodipodi:namedview
     id="namedview7"
     pagecolor="#ffffff"
     bordercolor="#666666"
     borderopacity="1.0"
     inkscape:pageshadow="2"
     inkscape:pageopacity="0.0"
     inkscape:pagecheckerboard="0"
     inkscape:document-units="mm"
     showgrid="false"
     inkscape:zoom="0.7198092"
     inkscape:cx="396.63288"
     inkscape:cy="388.29734"
     inkscape:window-width="1920"
     inkscape:window-height="1001"
     inkscape:window-x="-9"
     inkscape:window-y="-9"
     inkscape:window-maximized="1"
     inkscape:current-layer="layer1" />
  <defs
     id="defs2">
    <clipPath
       clipPathUnits="userSpaceOnUse"
       id="clipPath23">
      <path
         d="M 0,465.278 H 653.625 V 0 H 0 Z"
         id="path21" />
    </clipPath>
  </defs>
  <g
     inkscape:label="Layer 1"
     inkscape:groupmode="layer"
     id="layer1">
    <path
       d="m 187.66685,141.9804 -7.67324,8.12915 H 79.922887 L 184.76296,38.438365 H 52.21867 v 15.180353 h 55.06078 L 0.0357546,167.85161 H 163.24726 l -8.06232,8.54169 0.54171,0.51151 0.5417,0.51119 32.48191,-34.41323 z m 12.93865,25.20258 -3.54295,9.72183 h 2.53086 l 3.54264,-9.72183 z m 8.80613,4.85931 c 0,8.77561 -7.11417,15.88914 -15.88881,15.88914 -0.15872,0 -0.3152,-0.003 -0.47264,-0.008 l 3.24736,-8.92373 h 4.46893 c 0.78429,0 1.64569,-0.60308 1.913,-1.34045 l 3.52272,-9.67588 c 0.5764,-1.58367 -0.33062,-2.87979 -2.01647,-2.87979 h -6.19879 l -8.15325,22.3967 c -6.99626,-1.66368 -12.2,-7.95212 -12.2,-15.45827 0,-7.28896 4.90751,-13.4296 11.59885,-15.30148 l -8.10152,22.25917 h 3.3672 l 4.30057,-11.80865 h 2.53215 l -4.30217,11.80865 3.36623,9.2e-4 4.00851,-11.01762 c 0.57705,-1.58367 -0.33094,-2.87979 -2.01485,-2.87979 h -2.83064 l 3.25056,-8.93336 c 0.23616,-0.0103 0.47391,-0.017 0.71425,-0.017 8.77464,0 15.88881,7.11321 15.88881,15.88881"
       style="fill:#000000;fill-opacity:1;fill-rule:nonzero;stroke:none;stroke-width:0.321297"
       id="path27" />
  </g>
</svg>
